<svg xmlns="http://www.w3.org/2000/svg" xmlns:xlink="http://www.w3.org/1999/xlink" width="1920" height="771" viewBox="0 0 1920 771">
  <defs>
    <filter id="Rectangle_31" x="390.89" y="252.703" width="172.718" height="172.718" filterUnits="userSpaceOnUse">
      <feOffset input="SourceAlpha"/>
      <feGaussianBlur stdDeviation="1.327" result="blur"/>
      <feFlood flood-color="#bf7232" flood-opacity="0.749"/>
      <feComposite operator="in" in2="blur"/>
      <feComposite in="SourceGraphic"/>
    </filter>
    <filter id="Rectangle_34" x="630.942" y="36.47" width="172.718" height="172.718" filterUnits="userSpaceOnUse">
      <feOffset input="SourceAlpha"/>
      <feGaussianBlur stdDeviation="1.327" result="blur-2"/>
      <feFlood flood-color="#bc4220" flood-opacity="0.749"/>
      <feComposite operator="in" in2="blur-2"/>
      <feComposite in="SourceGraphic"/>
    </filter>
    <filter id="Rectangle_37" x="871.03" y="260.699" width="172.718" height="172.718" filterUnits="userSpaceOnUse">
      <feOffset input="SourceAlpha"/>
      <feGaussianBlur stdDeviation="1.327" result="blur-3"/>
      <feFlood flood-color="#ad3a58" flood-opacity="0.749"/>
      <feComposite operator="in" in2="blur-3"/>
      <feComposite in="SourceGraphic"/>
    </filter>
    <filter id="Rectangle_40" x="1110.626" y="36.47" width="172.718" height="172.718" filterUnits="userSpaceOnUse">
      <feOffset input="SourceAlpha"/>
      <feGaussianBlur stdDeviation="1.327" result="blur-4"/>
      <feFlood flood-color="#aa4385" flood-opacity="0.749"/>
      <feComposite operator="in" in2="blur-4"/>
      <feComposite in="SourceGraphic"/>
    </filter>
    <filter id="Rectangle_43" x="1351.116" y="260.699" width="172.717" height="172.717" filterUnits="userSpaceOnUse">
      <feOffset input="SourceAlpha"/>
      <feGaussianBlur stdDeviation="1.327" result="blur-5"/>
      <feFlood flood-color="#7f367c" flood-opacity="0.749"/>
      <feComposite operator="in" in2="blur-5"/>
      <feComposite in="SourceGraphic"/>
    </filter>
    <filter id="Rectangle_46" x="1591.24" y="36.47" width="172.718" height="172.718" filterUnits="userSpaceOnUse">
      <feOffset input="SourceAlpha"/>
      <feGaussianBlur stdDeviation="1.327" result="blur-6"/>
      <feFlood flood-color="#3d254c" flood-opacity="0.749"/>
      <feComposite operator="in" in2="blur-6"/>
      <feComposite in="SourceGraphic"/>
    </filter>
    <filter id="Rectangle_49" x="150.792" y="36.47" width="172.718" height="172.718" filterUnits="userSpaceOnUse">
      <feOffset input="SourceAlpha"/>
      <feGaussianBlur stdDeviation="1.327" result="blur-7"/>
      <feFlood flood-color="#c19f33" flood-opacity="0.749"/>
      <feComposite operator="in" in2="blur-7"/>
      <feComposite in="SourceGraphic"/>
    </filter>
  </defs>
  <g id="Group_106" data-name="Group 106" transform="translate(0 -2436)">
    <g id="Group_105" data-name="Group 105" transform="translate(-6146 4008)">
      <g id="BACKGROUND" transform="translate(6146 -1474.882)">
        <path id="Path_40" data-name="Path 40" d="M0,159.449H237.151L470.066,392.363,708.2,154.229,944.252,390.28l249.629-249.629,245.7,245.7L1692.2,133.737H1920" transform="translate(0 -133.737)" fill="none" stroke="#c5c5c5" stroke-miterlimit="10" stroke-width="17"/>
      </g>
      <rect id="Rectangle_30" data-name="Rectangle 30" width="173.706" height="173.706" rx="16.479" transform="translate(6623.249 -1354.568) rotate(45)" fill="#fed735"/>
      <path id="Path_41" data-name="Path 41" d="M201.464,345.05c-7.662-38.057-26.691-62.723-26.691-62.723L204.6,253.963l29.832,28.365s-19.1,24.54-26.737,62.723c0,0-.781,3.8-3.1,3.8S201.464,345.05,201.464,345.05Z" transform="translate(6418.646 -1421.068)" fill="#fed735"/>
      <g transform="matrix(1, 0, 0, 1, 6146, -1572)" filter="url(#Rectangle_31)">
        <rect id="Rectangle_31-2" data-name="Rectangle 31" width="116.5" height="116.5" rx="11.052" transform="translate(477.25 256.68) rotate(45)" fill="#fff"/>
      </g>
      <circle id="Ellipse_778" data-name="Ellipse 778" cx="21.517" cy="21.517" r="21.517" transform="translate(6601.732 -958.984)" fill="#fed735"/>
      <circle id="Ellipse_779" data-name="Ellipse 779" cx="15.22" cy="15.22" r="15.22" transform="translate(6608.029 -952.906)" fill="#fff"/>
      <rect id="Rectangle_32" data-name="Rectangle 32" width="7.796" height="122.646" transform="translate(6619.351 -1081.258)" fill="#fed735"/>
      <rect id="Rectangle_33" data-name="Rectangle 33" width="173.706" height="173.706" rx="16.479" transform="translate(6863.3 -1572) rotate(45)" fill="#1aacff"/>
      <path id="Path_42" data-name="Path 42" d="M295.234,260.118c-7.662-38.057-26.691-62.725-26.691-62.725l29.829-28.365L328.2,197.393s-19.1,24.543-26.734,62.725c0,0-.781,3.8-3.1,3.8S295.234,260.118,295.234,260.118Z" transform="translate(6564.927 -1553.566)" fill="#1aacff"/>
      <g transform="matrix(1, 0, 0, 1, 6146, -1572)" filter="url(#Rectangle_34)">
        <rect id="Rectangle_34-2" data-name="Rectangle 34" width="116.5" height="116.5" rx="11.052" transform="translate(717.3 40.45) rotate(45)" fill="#fff"/>
      </g>
      <circle id="Ellipse_780" data-name="Ellipse 780" cx="21.517" cy="21.517" r="21.517" transform="matrix(0.231, -0.973, 0.973, 0.231, 6837.402, -1138.504)" fill="#1aacff"/>
      <circle id="Ellipse_781" data-name="Ellipse 781" cx="15.22" cy="15.22" r="15.22" transform="translate(6848.08 -1169.918)" fill="#fff"/>
      <rect id="Rectangle_35" data-name="Rectangle 35" width="7.796" height="122.646" transform="translate(6859.402 -1298.271)" fill="#1aacff"/>
      <rect id="Rectangle_36" data-name="Rectangle 36" width="173.707" height="173.707" rx="16.479" transform="translate(6980.56 -1223.743) rotate(-45)" fill="#e53329"/>
      <path id="Path_43" data-name="Path 43" d="M389.018,348.176c-7.66-38.057-26.69-62.725-26.69-62.725l29.832-28.365,29.829,28.365s-19.1,24.543-26.734,62.725c0,0-.781,3.8-3.095,3.8S389.018,348.176,389.018,348.176Z" transform="translate(6711.23 -1416.196)" fill="#e53329"/>
      <g transform="matrix(1, 0, 0, 1, 6146, -1572)" filter="url(#Rectangle_37)">
        <rect id="Rectangle_37-2" data-name="Rectangle 37" width="116.5" height="116.5" rx="11.052" transform="translate(957.39 264.68) rotate(45)" fill="#fff"/>
      </g>
      <circle id="Ellipse_782" data-name="Ellipse 782" cx="21.517" cy="21.517" r="21.517" transform="translate(7081.872 -950.987)" fill="#e53329"/>
      <circle id="Ellipse_783" data-name="Ellipse 783" cx="15.22" cy="15.22" r="15.22" transform="translate(7088.169 -944.908)" fill="#fff"/>
      <rect id="Rectangle_38" data-name="Rectangle 38" width="7.797" height="122.646" transform="translate(7099.491 -1073.261)" fill="#e53329"/>
      <rect id="Rectangle_39" data-name="Rectangle 39" width="173.706" height="173.706" rx="16.479" transform="translate(7343.449 -1572) rotate(45)" fill="#441f51"/>
      <path id="Path_44" data-name="Path 44" d="M482.792,260.118c-7.66-38.057-26.691-62.725-26.691-62.725l29.832-28.365,29.829,28.365s-19.1,24.543-26.734,62.725c0,0-.781,3.8-3.1,3.8S482.792,260.118,482.792,260.118Z" transform="translate(6857.518 -1553.567)" fill="#441f51"/>
      <g transform="matrix(1, 0, 0, 1, 6146, -1572)" filter="url(#Rectangle_40)">
        <rect id="Rectangle_40-2" data-name="Rectangle 40" width="116.5" height="116.5" rx="11.052" transform="translate(1196.98 40.45) rotate(45)" fill="#fff"/>
      </g>
      <circle id="Ellipse_784" data-name="Ellipse 784" cx="21.517" cy="21.517" r="21.517" transform="translate(7313.02 -1154.479) rotate(-45)" fill="#441f51"/>
      <circle id="Ellipse_785" data-name="Ellipse 785" cx="15.22" cy="15.22" r="15.22" transform="translate(7328.229 -1169.918)" fill="#fff"/>
      <rect id="Rectangle_41" data-name="Rectangle 41" width="7.796" height="122.646" transform="translate(7339.552 -1298.271)" fill="#441f51"/>
      <rect id="Rectangle_42" data-name="Rectangle 42" width="173.707" height="173.707" rx="16.479" transform="translate(7583.529 -1346.572) rotate(45)" fill="#00b9b4"/>
      <path id="Path_45" data-name="Path 45" d="M576.573,348.176c-7.662-38.057-26.69-62.725-26.69-62.725l29.831-28.365,29.829,28.365s-19.1,24.543-26.734,62.725c0,0-.781,3.8-3.1,3.8S576.573,348.176,576.573,348.176Z" transform="translate(7003.816 -1416.196)" fill="#00b9b4"/>
      <g transform="matrix(1, 0, 0, 1, 6146, -1572)" filter="url(#Rectangle_43)">
        <rect id="Rectangle_43-2" data-name="Rectangle 43" width="116.5" height="116.5" rx="11.052" transform="translate(1437.48 264.68) rotate(45)" fill="#fff"/>
      </g>
      <circle id="Ellipse_786" data-name="Ellipse 786" cx="21.517" cy="21.517" r="21.517" transform="translate(7553.135 -933.651) rotate(-49.399)" fill="#00b9b4"/>
      <circle id="Ellipse_787" data-name="Ellipse 787" cx="15.22" cy="15.22" r="15.22" transform="translate(7568.255 -951.424)" fill="#fff"/>
      <rect id="Rectangle_44" data-name="Rectangle 44" width="7.796" height="122.646" transform="translate(7579.577 -1079.777)" fill="#00b9b4"/>
      <rect id="Rectangle_45" data-name="Rectangle 45" width="173.706" height="173.706" rx="16.479" transform="matrix(0.707, 0.707, -0.707, 0.707, 7823.599, -1572)" fill="#ec307c"/>
      <path id="Path_46" data-name="Path 46" d="M670.351,260.118c-7.662-38.057-26.691-62.725-26.691-62.725l29.829-28.365,29.832,28.365s-19.1,24.543-26.737,62.725c0,0-.781,3.8-3.095,3.8S670.351,260.118,670.351,260.118Z" transform="translate(7150.11 -1553.566)" fill="#ec307c"/>
      <g transform="matrix(1, 0, 0, 1, 6146, -1572)" filter="url(#Rectangle_46)">
        <rect id="Rectangle_46-2" data-name="Rectangle 46" width="116.5" height="116.5" rx="11.052" transform="translate(1677.6 40.45) rotate(45)" fill="#fff"/>
      </g>
      <circle id="Ellipse_788" data-name="Ellipse 788" cx="21.517" cy="21.517" r="21.517" transform="translate(7798.921 -1137.453) rotate(-80.807)" fill="#ec307c"/>
      <circle id="Ellipse_789" data-name="Ellipse 789" cx="15.22" cy="15.22" r="15.22" transform="translate(7808.379 -1170.695)" fill="#fff"/>
      <rect id="Rectangle_47" data-name="Rectangle 47" width="7.796" height="122.646" transform="translate(7819.702 -1299.048)" fill="#ec307c"/>
      <rect id="Rectangle_48" data-name="Rectangle 48" width="173.706" height="173.706" rx="16.479" transform="translate(6383.151 -1572) rotate(45)" fill="#ff71ad"/>
      <path id="Path_47" data-name="Path 47" d="M107.676,260.118c-7.662-38.057-26.691-62.725-26.691-62.725l29.829-28.365,29.832,28.365s-19.105,24.543-26.737,62.725c0,0-.781,3.8-3.1,3.8S107.676,260.118,107.676,260.118Z" transform="translate(6272.336 -1553.566)" fill="#ff71ad"/>
      <g transform="matrix(1, 0, 0, 1, 6146, -1572)" filter="url(#Rectangle_49)">
        <rect id="Rectangle_49-2" data-name="Rectangle 49" width="116.5" height="116.5" rx="11.052" transform="translate(237.15 40.45) rotate(45)" fill="#fff"/>
      </g>
      <circle id="Ellipse_790" data-name="Ellipse 790" cx="21.517" cy="21.517" r="21.517" transform="matrix(0.231, -0.973, 0.973, 0.231, 6357.252, -1138.504)" fill="#ff71ad"/>
      <circle id="Ellipse_791" data-name="Ellipse 791" cx="15.22" cy="15.22" r="15.22" transform="translate(6367.931 -1169.918)" fill="#fff"/>
      <rect id="Rectangle_50" data-name="Rectangle 50" width="7.796" height="122.646" transform="translate(6379.253 -1298.271)" fill="#ff71ad"/>
      <g id="Icon_ionic-md-time" data-name="Icon ionic-md-time" transform="translate(6383.151 -1497.163) rotate(45)">
        <path id="Path_48" data-name="Path 48" d="M33.9,0A33.936,33.936,0,1,0,67.871,33.936,33.924,33.924,0,0,0,33.9,0Zm.033,61.084A27.149,27.149,0,1,1,61.084,33.936,27.149,27.149,0,0,1,33.936,61.084Z" fill="#ff71ab"/>
        <path id="Path_49" data-name="Path 49" d="M5.09,0H0V20.361L17.816,31.048l2.545-4.177L5.09,17.816Z" transform="translate(30.542 16.968)" fill="#ff71ab"/>
      </g>
      <path id="Icon_material-av-timer" data-name="Icon material-av-timer" d="M27.138,47.492A3.392,3.392,0,1,0,30.531,44.1,3.4,3.4,0,0,0,27.138,47.492ZM27.138,0V13.569h6.785V7.056A23.733,23.733,0,1,1,6.785,30.531a23.465,23.465,0,0,1,5.36-14.994L30.531,33.923l4.783-4.783L12.246,6.072V6.14A30.471,30.471,0,1,0,30.531,0ZM50.884,30.531a3.392,3.392,0,1,0-3.392,3.392A3.4,3.4,0,0,0,50.884,30.531Zm-40.707,0a3.392,3.392,0,1,0,3.392-3.392A3.4,3.4,0,0,0,10.177,30.531Z" transform="translate(6623.25 -1274.916) rotate(45)" fill="#fed735"/>
      <g id="Icon_feather-settings" data-name="Icon feather-settings" transform="translate(6863.301 -1498.03) rotate(45)">
        <path id="Path_50" data-name="Path 50" d="M18.845,9.422A9.422,9.422,0,1,1,9.422,0,9.422,9.422,0,0,1,18.845,9.422Z" transform="translate(25.126 25.126)" fill="none" stroke="#1aacff" stroke-linecap="round" stroke-linejoin="round" stroke-width="5"/>
        <path id="Path_51" data-name="Path 51" d="M57.791,43.971a5.182,5.182,0,0,0,1.036,5.716l.188.188a6.285,6.285,0,1,1-8.888,8.888l-.188-.188a5.224,5.224,0,0,0-8.857,3.706v.534a6.282,6.282,0,1,1-12.563,0v-.283a5.182,5.182,0,0,0-3.392-4.743,5.182,5.182,0,0,0-5.716,1.036l-.188.188a6.285,6.285,0,1,1-8.888-8.888l.188-.188a5.224,5.224,0,0,0-3.706-8.857H6.282a6.282,6.282,0,0,1,0-12.563h.283a5.182,5.182,0,0,0,4.743-3.392A5.182,5.182,0,0,0,10.27,19.41l-.188-.188a6.285,6.285,0,1,1,8.888-8.888l.188.188a5.182,5.182,0,0,0,5.716,1.036h.251a5.182,5.182,0,0,0,3.141-4.743V6.282a6.282,6.282,0,0,1,12.563,0v.283a5.224,5.224,0,0,0,8.857,3.706l.188-.188a6.285,6.285,0,1,1,8.888,8.888l-.188.188a5.182,5.182,0,0,0-1.036,5.716v.251a5.182,5.182,0,0,0,4.743,3.141h.534a6.282,6.282,0,1,1,0,12.563h-.283a5.182,5.182,0,0,0-4.743,3.141Z" transform="translate(0 0)" fill="none" stroke="#1aacff" stroke-linecap="round" stroke-linejoin="round" stroke-width="5"/>
      </g>
      <path id="Icon_awesome-recycle" data-name="Icon awesome-recycle" d="M21.542,30.57a1.869,1.869,0,0,1-2.809,2L13.978,29.6,8.041,39.1a3.742,3.742,0,0,0,3.166,5.717h6.068a1.4,1.4,0,0,1,1.4,1.4v4.669a1.4,1.4,0,0,1-1.4,1.4H11.219a11.212,11.212,0,0,1-9.5-17.144l5.932-9.5L2.9,22.677a1.869,1.869,0,0,1,.569-3.4L16.332,16.3a1.868,1.868,0,0,1,2.24,1.4L21.542,30.57Zm11.5-21.35,4.819,7.713L33.111,19.9a1.869,1.869,0,0,0,.569,3.4l12.867,2.971a1.867,1.867,0,0,0,2.24-1.4l2.971-12.867a1.869,1.869,0,0,0-2.809-2L44.2,12.975,39.383,5.261a11.211,11.211,0,0,0-19,0l-2.1,3.358a1.4,1.4,0,0,0,.446,1.93l3.959,2.474a1.4,1.4,0,0,0,1.93-.446l2.1-3.355A3.739,3.739,0,0,1,33.046,9.22Zm25,25.928L54.833,30a1.4,1.4,0,0,0-1.93-.446l-3.952,2.47a1.4,1.4,0,0,0-.446,1.93l3.217,5.149a3.741,3.741,0,0,1-3.167,5.715h-11.2v-5.6a1.869,1.869,0,0,0-3.188-1.32l-9.338,9.336a1.867,1.867,0,0,0,0,2.641l9.338,9.336a1.869,1.869,0,0,0,3.188-1.321v-5.6H48.542A11.212,11.212,0,0,0,58.044,35.147Z" transform="translate(7103.389 -1266) rotate(45)" fill="#e53329"/>
      <path id="Icon_awesome-user-friends" data-name="Icon awesome-user-friends" d="M17.9,23.131A10.441,10.441,0,1,0,7.458,12.691,10.435,10.435,0,0,0,17.9,23.131Zm7.159,2.983h-.774a14.415,14.415,0,0,1-12.771,0h-.774A10.742,10.742,0,0,0,0,36.853v2.685a4.476,4.476,0,0,0,4.475,4.475H31.322A4.476,4.476,0,0,0,35.8,39.538V36.853A10.742,10.742,0,0,0,25.057,26.114Zm19.688-2.983A8.949,8.949,0,1,0,35.8,14.182,8.951,8.951,0,0,0,44.745,23.131Zm4.475,2.983h-.354a11.755,11.755,0,0,1-8.241,0h-.354a10.354,10.354,0,0,0-5.192,1.436,13.642,13.642,0,0,1,3.7,9.3v3.58c0,.205-.047.4-.056.6H55.186a4.476,4.476,0,0,0,4.475-4.475A10.435,10.435,0,0,0,49.22,26.114Z" transform="translate(7313.154 -1472.302)" fill="#441f51"/>
      <path id="Icon_material-sms-failed" data-name="Icon material-sms-failed" d="M48.731,3H8.081A5.074,5.074,0,0,0,3.025,8.081L3,53.812,13.162,43.65H48.731a5.1,5.1,0,0,0,5.081-5.081V8.081A5.1,5.1,0,0,0,48.731,3ZM30.947,33.487H25.865V28.406h5.081Zm0-10.162H25.865V13.162h5.081Z" transform="translate(7555.123 -1253.348)" fill="#00b9b4"/>
      <path id="Icon_ionic-md-fastforward" data-name="Icon ionic-md-fastforward" d="M56.76,25.5,30.284,7.734V43.263ZM2.25,7.734V43.263L28.726,25.5Z" transform="translate(7797.993 -1474.67)" fill="#ec307c"/>
    </g>
    <text id="Fast_Solutions" data-name="Fast
Solutions" transform="translate(239 2942)" fill="#ff71ad" font-size="38" font-family="SegoeUI-Bold, Segoe UI" font-weight="700"><tspan x="-35.291" y="0">Fast</tspan><tspan x="-83.422" y="51">Solutions</tspan></text>
    <text id="Improved_Performance" data-name="Improved 
Performance" transform="translate(485 3146)" fill="#fed735" font-size="38" font-family="SegoeUI-Bold, Segoe UI" font-weight="700"><tspan x="-91.707" y="0">Improved </tspan><tspan x="-114.455" y="51">Performance</tspan></text>
    <text id="Increased_Efficiency" data-name="Increased
Efficiency" transform="translate(717 2942)" fill="#1aacff" font-size="38" font-family="SegoeUI-Bold, Segoe UI" font-weight="700"><tspan x="-85.027" y="0">Increased</tspan><tspan x="-85.713" y="51">Efficiency</tspan></text>
    <text id="Continuous_Improvement" data-name="Continuous
Improvement" transform="translate(960 3146)" fill="#e53329" font-size="38" font-family="SegoeUI-Bold, Segoe UI" font-weight="700"><tspan x="-102.218" y="0">Continuous</tspan><tspan x="-121.273" y="51">Improvement</tspan></text>
    <text id="Increased_Customer_Experience" data-name="Increased 
Customer
Experience" transform="translate(1200 2942)" fill="#441f51" font-size="38" font-family="SegoeUI-Bold, Segoe UI" font-weight="700"><tspan x="-90.269" y="0">Increased </tspan><tspan x="-85.89" y="51">Customer</tspan><tspan x="-96.874" y="102">Experience</tspan></text>
    <text id="Reduced_Failure_Rollbacks" data-name="Reduced
Failure &amp; Rollbacks" transform="translate(1441 3146)" fill="#00b9b4" font-size="38" font-family="SegoeUI-Bold, Segoe UI" font-weight="700"><tspan x="-76.631" y="0">Reduced</tspan><tspan x="-170.49" y="51">Failure &amp; Rollbacks</tspan></text>
    <text id="Faster_ROI" data-name="Faster
ROI" transform="translate(1682 2942)" fill="#ec307c" font-size="38" font-family="SegoeUI-Bold, Segoe UI" font-weight="700"><tspan x="-53.057" y="0">Faster</tspan><tspan x="-32.647" y="51">ROI</tspan></text>
  </g>
</svg>
