<svg xmlns="http://www.w3.org/2000/svg" xmlns:xlink="http://www.w3.org/1999/xlink" width="1920" height="774" viewBox="0 0 1920 774"><defs><linearGradient id="a" x1="0.968" y1="0.5" x2="0.199" y2="0.5" gradientUnits="objectBoundingBox"><stop offset="0" stop-color="#ffc942"/><stop offset="0.118" stop-color="#fdc239"/><stop offset="1" stop-color="#f39100"/></linearGradient><linearGradient id="b" x1="0.391" y1="-8.311" x2="0.722" y2="-9.017" gradientUnits="objectBoundingBox"><stop offset="0" stop-color="#c4c4c4"/><stop offset="0.611" stop-color="#c4c4c4" stop-opacity="0.498"/><stop offset="1" stop-color="#c4c4c4" stop-opacity="0.2"/></linearGradient><linearGradient id="c" x1="1.013" y1="-10.155" x2="-0.04" y2="-10.155" gradientUnits="objectBoundingBox"><stop offset="0" stop-color="#ff8ac2"/><stop offset="0.092" stop-color="#ff83bc"/><stop offset="1" stop-color="#ff4a8c"/></linearGradient><linearGradient id="d" x1="0.391" y1="0.78" x2="0.722" y2="0.074" xlink:href="#b"/><linearGradient id="e" x1="1.013" y1="0.5" x2="-0.04" y2="0.5" gradientUnits="objectBoundingBox"><stop offset="0" stop-color="#f542e3"/><stop offset="0.155" stop-color="#e942e5"/><stop offset="1" stop-color="#b042f5"/></linearGradient><linearGradient id="g" x1="1.013" y1="-10.155" x2="-0.04" y2="-10.155" gradientUnits="objectBoundingBox"><stop offset="0" stop-color="#42ffef"/><stop offset="0.105" stop-color="#41f7f0"/><stop offset="1" stop-color="#3abeff"/></linearGradient><linearGradient id="i" x1="1.013" y1="0.5" x2="-0.04" y2="0.5" gradientUnits="objectBoundingBox"><stop offset="0" stop-color="#a5f04f"/><stop offset="0.365" stop-color="#81de59"/><stop offset="1" stop-color="#48c26b"/></linearGradient><linearGradient id="k" x1="1.013" y1="-10.155" x2="-0.04" y2="-10.155" gradientUnits="objectBoundingBox"><stop offset="0" stop-color="#ff9130"/><stop offset="0.284" stop-color="#ff782d"/><stop offset="1" stop-color="#ff3f26"/></linearGradient><linearGradient id="m" x1="1.013" x2="-0.04" xlink:href="#a"/></defs><g transform="translate(0 -3754)"><g transform="translate(0 3894.5)"><rect width="425.56" height="90.613" transform="translate(1494.44 186.42)" fill="url(#a)"/><path d="M764.417,351.057h-7.191l-.645-18.314c-2.97-84.449-73.846-150.835-158.295-150.835H585.849l2.586,78.3h12.441c34.483,0,63.88,38.049,65.091,72.54l.645,18.314H655.883c-12.459,0-16.742,8.515-9.523,18.913l54.753,78.851c7.227,10.4,18.452,10.4,24.942,0l49.208-78.851C781.756,359.572,776.876,351.057,764.417,351.057Z" transform="translate(913.925 14.595)" fill="url(#b)" style="mix-blend-mode:multiply;isolation:isolate"/><path d="M907.452,356.406h-7.191V338.094c0-84.452-68.7-153.157-153.152-153.157H484.041v90.611H747.109a62.61,62.61,0,0,1,62.541,62.546v18.312H798.921c-12.46,0-17.039,8.512-10.186,18.916l51.983,78.848c6.858,10.4,18.084,10.4,24.937,0l51.981-78.848C924.5,364.918,919.912,356.406,907.452,356.406Z" transform="translate(755.104 1.489)" fill="url(#c)"/><path d="M662.609,364.229h-7.191l-.645,18.314c-2.97,84.449-73.843,150.835-158.295,150.835H484.041l2.588-78.3h12.439c34.486,0,63.88-38.049,65.093-72.54l.645-18.314H554.075c-12.46,0-16.742-8.512-9.521-18.913l54.751-78.851c7.229-10.4,18.453-10.4,24.945,0l49.206,78.851C679.948,355.717,675.068,364.229,662.609,364.229Z" transform="translate(755.104 -258.666)" fill="url(#d)" style="mix-blend-mode:multiply;isolation:isolate"/><path d="M806.051,363.323H798.86v18.314c0,84.449-68.7,153.155-153.155,153.155H382.64V444.181H645.706a62.611,62.611,0,0,0,62.546-62.543V363.323H697.52c-12.46,0-17.045-8.512-10.184-18.913l51.981-78.851c6.853-10.4,18.079-10.4,24.937,0l51.981,78.851C823.091,354.811,818.511,363.323,806.051,363.323Z" transform="translate(596.918 -257.76)" fill="url(#e)"/><path d="M561.208,351.057h-7.191l-.645-18.314c-2.97-84.449-73.846-150.835-158.3-150.835H382.64l2.586,78.3h12.442c34.483,0,63.88,38.049,65.091,72.54l.645,18.314H452.674c-12.46,0-16.742,8.515-9.523,18.913L497.9,448.821c7.227,10.4,18.452,10.4,24.942,0l49.208-78.851C578.547,359.572,573.667,351.057,561.208,351.057Z" transform="translate(596.918 14.595)" fill="url(#b)" style="mix-blend-mode:multiply;isolation:isolate"/><path d="M704.653,356.406h-7.194V338.094c0-84.452-68.7-153.157-153.152-153.157H281.239v90.611H544.307a62.611,62.611,0,0,1,62.543,62.546v18.312H596.117c-12.457,0-17.039,8.512-10.181,18.916l51.981,78.848c6.856,10.4,18.081,10.4,24.94,0l51.978-78.848C721.692,364.918,717.11,356.406,704.653,356.406Z" transform="translate(438.733 1.489)" fill="url(#g)"/><path d="M459.807,364.229h-7.189l-.645,18.314c-2.972,84.449-73.846,150.835-158.3,150.835H281.239l2.588-78.3h12.439c34.486,0,63.88-38.049,65.093-72.54L362,364.229H351.275c-12.462,0-16.742-8.512-9.523-18.913l54.753-78.851c7.227-10.4,18.452-10.4,24.942,0l49.206,78.851C477.148,355.717,472.266,364.229,459.807,364.229Z" transform="translate(438.733 -258.666)" fill="url(#d)" style="mix-blend-mode:multiply;isolation:isolate"/><path d="M603.247,363.323h-7.188v18.314c0,84.449-68.705,153.155-153.155,153.155H179.838V444.181H442.9a62.61,62.61,0,0,0,62.543-62.543V363.323H494.718c-12.46,0-17.042-8.512-10.186-18.913l51.981-78.851c6.858-10.4,18.081-10.4,24.94,0l51.981,78.851C620.289,354.811,615.709,363.323,603.247,363.323Z" transform="translate(280.547 -257.76)" fill="url(#i)"/><path d="M358.406,351.057h-7.191l-.645-18.314c-2.97-84.449-73.843-150.835-158.3-150.835H179.838l2.588,78.3h12.439c34.486,0,63.88,38.049,65.093,72.54l.645,18.314H249.872c-12.46,0-16.742,8.515-9.521,18.913L295.1,448.821c7.227,10.4,18.453,10.4,24.942,0l49.208-78.851C375.745,359.572,370.865,351.057,358.406,351.057Z" transform="translate(280.547 14.595)" fill="url(#b)" style="mix-blend-mode:multiply;isolation:isolate"/><path d="M501.847,356.406h-7.191V338.094c0-84.452-68.705-153.157-153.155-153.157H78.438v90.611H341.5a62.609,62.609,0,0,1,62.541,62.546v18.312H393.313c-12.457,0-17.039,8.512-10.181,18.916l51.981,78.848c6.853,10.4,18.079,10.4,24.939,0l51.978-78.848C518.886,364.918,514.306,356.406,501.847,356.406Z" transform="translate(122.363 1.489)" fill="url(#k)"/><path d="M257,364.229h-7.188l-.645,18.314c-2.97,84.449-73.846,150.835-158.3,150.835H78.438l2.586-78.3H93.465c34.483,0,63.88-38.049,65.091-72.54l.645-18.314H148.472c-12.46,0-16.742-8.512-9.523-18.913L193.7,266.465c7.227-10.4,18.452-10.4,24.942,0l49.208,78.851C274.345,355.717,269.465,364.229,257,364.229Z" transform="translate(122.363 -258.666)" fill="url(#d)" style="mix-blend-mode:multiply;isolation:isolate"/><path d="M364.623,363.323H357.43v18.314c0,84.449-68.7,153.155-153.152,153.155H0V444.181H204.278a62.61,62.61,0,0,0,62.543-62.543V363.323H256.09c-12.46,0-17.039-8.512-10.184-18.913l51.978-78.851c6.861-10.4,18.086-10.4,24.94,0L374.8,344.41C381.663,354.811,377.08,363.323,364.623,363.323Z" transform="translate(0 -257.76)" fill="url(#m)"/></g><text transform="translate(337 3796)" fill="#313131" font-size="40" font-family="Poppins-SemiBold, Poppins" font-weight="600"><tspan x="-135.22" y="0">On-premises</tspan><tspan x="-118.98" y="60">data center</tspan></text><text transform="translate(578 4454)" fill="#313131" font-size="40" font-family="Poppins-SemiBold, Poppins" font-weight="600"><tspan x="-60.46" y="0">Cloud</tspan><tspan x="-64.42" y="60">aware</tspan></text><text transform="translate(834 3796)" fill="#313131" font-size="40" font-family="Poppins-SemiBold, Poppins" font-weight="600"><tspan x="-70.66" y="0">Ad hoc</tspan><tspan x="-161.76" y="60">adoption (IaaS)</tspan></text><text transform="translate(1095 4454)" fill="#313131" font-size="40" font-family="Poppins-SemiBold, Poppins" font-weight="600"><tspan x="-83.62" y="0">Planned</tspan><tspan x="-113.38" y="60">Integration</tspan></text><text transform="translate(1601 4454)" fill="#313131" font-size="40" font-family="Poppins-SemiBold, Poppins" font-weight="600"><tspan x="-104.42" y="0">Cloud first</tspan><tspan x="-177.34" y="60">optimized (PaaS)</tspan></text><text transform="translate(1343 3796)" fill="#313131" font-size="40" font-family="Poppins-SemiBold, Poppins" font-weight="600"><tspan x="-122.3" y="0">Measured &amp;</tspan><tspan x="-115.48" y="60">automated</tspan></text></g></svg>