<svg xmlns="http://www.w3.org/2000/svg" xmlns:xlink="http://www.w3.org/1999/xlink" id="Group_52" data-name="Group 52" width="51" height="51" viewBox="0 0 51 51">
  <defs>
    <clipPath id="clip-path">
      <rect id="Rectangle_43" data-name="Rectangle 43" width="40.664" height="40.667" transform="translate(0.002 0)" fill="none"/>
    </clipPath>
  </defs>
  <g id="Group_48" data-name="Group 48" transform="translate(5.166 5.167)">
    <g id="Group_47" data-name="Group 47" clip-path="url(#clip-path)">
      <path id="Path_60" data-name="Path 60" d="M40.666,40.023a1.062,1.062,0,0,1-1.113.642q-19.221-.014-38.441-.009A1.829,1.829,0,0,1,.566,40.6a.828.828,0,0,1,.189-1.61c.287-.022.578,0,.909,0,.009-.191.023-.344.023-.5V29.948c0-.876.264-1.141,1.135-1.141H7.349c.864,0,1.128.269,1.128,1.148v8.994h3.376V21.525c0-.937.26-1.193,1.207-1.193h4.487c.8,0,1.1.3,1.1,1.106v17.5h3.376V24.923c0-.952.245-1.2,1.2-1.2h4.448c.873,0,1.143.268,1.143,1.133V38.939h3.351c.008-.159.023-.324.023-.488V14.826a4.2,4.2,0,0,1,.011-.476.808.808,0,0,1,.832-.785h.007q2.541-.016,5.083,0a.809.809,0,0,1,.845.772v.006a3.779,3.779,0,0,1,.012.476V38.956c.635.039,1.334-.138,1.688.59ZM37.243,15.266h-3.32V38.92h3.32ZM13.581,38.915H16.9V22.044H13.581Zm10.181,0h3.323V25.435H23.762Zm-20.331,0H6.752v-8.4H3.431Z" fill="#fff"/>
      <path id="Path_61" data-name="Path 61" d="M36.059,0c.226.069.455.128.677.208a3.378,3.378,0,1,1-2.3,6.353c-.063-.022-.125-.047-.186-.073a.548.548,0,0,0-.735.15q-2.453,2.487-4.939,4.942a.392.392,0,0,0-.109.534,3.38,3.38,0,1,1-6.417,1.07v-.2l-3.144-.9a.506.506,0,0,1-.077-.018c-.437-.209-.713-.115-1.039.3a3.348,3.348,0,0,1-4.582.516L12.3,13.6c-1.324,1.055-2.646,2.114-3.976,3.162a.367.367,0,0,0-.166.492c0,.009.009.017.014.026A3.384,3.384,0,1,1,6.558,15.6a.492.492,0,0,0,.622-.073c1.635-1.325,3.287-2.625,4.847-3.871a13.011,13.011,0,0,1-.1-2.012,3.362,3.362,0,0,1,6.653.015.752.752,0,0,0,.669.778c1.09.266,2.161.61,3.244.906a.51.51,0,0,0,.411-.069,3.449,3.449,0,0,1,4.306-.621c.176-.2.361-.445.575-.66q2.31-2.322,4.63-4.633c.145-.145.248-.245.132-.5a3.356,3.356,0,0,1,2.416-4.8A.84.84,0,0,0,35.106,0Zm1.208,3.382a1.685,1.685,0,1,0-1.679,1.7,1.685,1.685,0,0,0,1.679-1.7h0M27.1,13.535a1.685,1.685,0,1,0-1.668,1.711A1.685,1.685,0,0,0,27.1,13.535M6.768,18.623a1.685,1.685,0,1,0-1.674,1.7,1.685,1.685,0,0,0,1.674-1.7M15.255,8.48a1.684,1.684,0,1,0,1.679,1.689A1.664,1.664,0,0,0,15.3,8.48h-.04" fill="#fff"/>
    </g>
  </g>
  <rect id="Rectangle_46" data-name="Rectangle 46" width="51" height="51" fill="none"/>
</svg>