<svg xmlns="http://www.w3.org/2000/svg" xmlns:xlink="http://www.w3.org/1999/xlink" id="Group_1" data-name="Group 1" width="51" height="51" viewBox="0 0 51 51">
  <defs>
    <clipPath id="clip-path">
      <rect id="Rectangle_37" data-name="Rectangle 37" width="45.203" height="42.032" transform="translate(0 0)" fill="none"/>
    </clipPath>
  </defs>
  <g id="Group_39" data-name="Group 39" transform="translate(2.898 4.484)">
    <g id="Group_38" data-name="Group 38" clip-path="url(#clip-path)">
      <path id="Path_46" data-name="Path 46" d="M20.051,42.009H7.672q-1.944,0-3.893.009c-.572,0-1.144.009-1.714,0a1.98,1.98,0,0,1-1.9-1.171,1.515,1.515,0,0,1-.141-.541C0,39.873,0,39.438,0,39.006V15.267a1.969,1.969,0,0,1,1.9-2.033q.066,0,.132,0c.24-.009.48-.008.719,0,.142,0,.2-.04.186-.2a7.073,7.073,0,0,1,.1-2.436,6.221,6.221,0,0,1,.817-1.943A6.562,6.562,0,0,1,5,7.289,6.4,6.4,0,0,1,6.679,6.213a6.507,6.507,0,0,1,2.949-.535c.182.008.364.041.544.067.114.015.172-.022.208-.141A8.015,8.015,0,0,1,14.554.78,6.948,6.948,0,0,1,16.463.157,7.519,7.519,0,0,1,18.5.018,11.151,11.151,0,0,1,19.841.21,7.778,7.778,0,0,1,21.75.934a8.039,8.039,0,0,1,2.564,2.171,10.392,10.392,0,0,1,.7,1.073.246.246,0,0,0,.291.136A7.752,7.752,0,0,1,27.012,4.2a7.668,7.668,0,0,1,2.022.4,6.71,6.71,0,0,1,1.613.807,7.068,7.068,0,0,1,1.937,1.936,6.819,6.819,0,0,1,.9,1.893,7.505,7.505,0,0,1,.224,3.206,5.419,5.419,0,0,1-.138.641c-.081.2.149.128.237.153.128.028.167.121.167.241v1.2c0,.214-.036.245-.256.245H8.274c-.265,0-.287.023-.287.3V40.08c0,.236.029.267.267.267h4.681c1.189,0,2.379.009,3.567.008,1.372,0,2.744-.008,4.115-.008.995,0,1.989.009,2.984.009,1.228,0,2.458-.009,3.686-.009,1.114,0,2.228.009,3.344.009,1.326,0,2.652-.009,3.975-.009,1.126,0,2.252.006,3.379.009.342,0,.437-.095.437-.437V19.8c0-.273,0-.278.278-.28h1.167c.214,0,.233.022.233.24V39.98a1.956,1.956,0,0,1-1.026,1.809,2.035,2.035,0,0,1-1.026.235c-.742.008-1.486,0-2.228,0-1.337,0-2.675.009-4.012.009-1.2,0-2.4-.006-3.6-.008H20.051ZM18.236,13.218H31.592a.234.234,0,0,0,.256-.177A6.263,6.263,0,0,0,32.1,11.7a5.459,5.459,0,0,0-5.045-5.842c-.069,0-.138-.009-.207-.011a4.95,4.95,0,0,0-1.623.2c-.3.1-.606.2-.913.286a.182.182,0,0,1-.159-.055,2.729,2.729,0,0,1-.2-.432,6.013,6.013,0,0,0-.972-1.773A6.386,6.386,0,0,0,20.9,2.355a6.628,6.628,0,0,0-2.6-.7,6.351,6.351,0,0,0-1.649.154,5.852,5.852,0,0,0-1.868.73,6.037,6.037,0,0,0-1.84,1.667,5.924,5.924,0,0,0-.927,1.816c-.068.233-.071.231.192.367a6.229,6.229,0,0,1,1.89,1.5c.121.14.118.192-.027.308-.335.268-.673.528-1,.8-.106.087-.173.071-.256-.026A4.686,4.686,0,0,0,4.57,12.184c.008.267.055.532.082.8.019.2.138.235.319.233q3.429-.008,6.859,0ZM6.311,27.618V22.36c0-1.063-.012-2.126-.012-3.188,0-1.332.009-2.663.012-4,0-.237-.041-.274-.283-.274H2.113c-.356,0-.433.074-.433.432V39.98c0,.256.085.346.347.359.137.006.274.01.412.009l3.549-.01c.288,0,.309-.019.309-.315v-8.8Z" fill="#fff"/>
      <path id="Path_47" data-name="Path 47" d="M19.34,28.2V24.552a1.426,1.426,0,0,1,.651-1.3,1.284,1.284,0,0,1,1.319-.1c.494.256.957.572,1.43.868.989.621,1.977,1.242,2.959,1.875.651.418,1.316.823,1.931,1.29a1.334,1.334,0,0,1,.173,1.878,1.285,1.285,0,0,1-.173.173,11.857,11.857,0,0,1-1.114.757c-1.045.669-2.1,1.332-3.143,2-.619.394-1.236.792-1.858,1.183a1.421,1.421,0,0,1-1.958-.453,1.524,1.524,0,0,1-.1-.2,1.822,1.822,0,0,1-.112-.654c-.006-1.223,0-2.441,0-3.658m1.667-.015h0v3.052a.816.816,0,0,0,.04.176.711.711,0,0,0,.186-.055c.712-.451,1.419-.908,2.131-1.362l2.652-1.687c.117-.073.118-.145.008-.217-.627-.4-1.253-.809-1.882-1.209q-1.457-.927-2.914-1.845a.793.793,0,0,0-.171-.055.678.678,0,0,0-.047.171V28.2Z" fill="#fff"/>
      <path id="Path_48" data-name="Path 48" d="M44.548,16.544h-.5c-.107,0-.153-.04-.157-.148a9.171,9.171,0,0,0-.094-1.047,11.69,11.69,0,0,0-.323-1.236,5.9,5.9,0,0,0-.617-1.314,7.206,7.206,0,0,0-3.477-2.961,5.409,5.409,0,0,0-1.369-.39c-.395-.047-.789-.1-1.183-.135-.1-.011-.143-.049-.142-.15q.006-.505,0-1.011c0-.115.049-.157.165-.152a10,10,0,0,1,1.7.208,8.73,8.73,0,0,1,1.5.477,8.213,8.213,0,0,1,1.9,1.136A8.662,8.662,0,0,1,43.571,11.5a8.258,8.258,0,0,1,1.036,1.882,7.866,7.866,0,0,1,.52,2.029c.033.316.051.637.075.956.01.126-.042.179-.174.171-.162-.009-.325,0-.486,0Z" fill="#fff"/>
      <path id="Path_49" data-name="Path 49" d="M36.685,12.135c0-.167,0-.333,0-.5,0-.115.035-.157.158-.157a5.073,5.073,0,0,1,4.6,3.368,4.58,4.58,0,0,1,.275,1.492c0,.172-.018.2-.186.2h-.92c-.167,0-.208-.039-.216-.2a3.611,3.611,0,0,0-1.719-2.965,3.544,3.544,0,0,0-1.8-.571c-.186-.01-.187-.009-.187-.194v-.473Z" fill="#fff"/>
      <path id="Path_50" data-name="Path 50" d="M37.934,16.536A1.261,1.261,0,0,1,36.68,17.8h-.013a1.261,1.261,0,0,1-1.246-1.261,1.243,1.243,0,0,1,1.222-1.265h.047A1.237,1.237,0,0,1,37.933,16.5h0v.032" fill="#fff"/>
    </g>
  </g>
  <rect id="Rectangle_38" data-name="Rectangle 38" width="51" height="51" fill="none"/>
</svg>