<svg xmlns="http://www.w3.org/2000/svg" xmlns:xlink="http://www.w3.org/1999/xlink" id="Group_13" data-name="Group 13" width="51" height="51" viewBox="0 0 51 51">
  <defs>
    <clipPath id="clip-path">
      <rect id="Rectangle_17" data-name="Rectangle 17" width="42.453" height="45.451" fill="#fff"/>
    </clipPath>
  </defs>
  <g id="Group_12" data-name="Group 12" transform="translate(4.273 2.775)">
    <g id="Group_11" data-name="Group 11" clip-path="url(#clip-path)">
      <path id="Path_17" data-name="Path 17" d="M30.349,4V1.359c-.145-.006-12.04-.021-17.735-.019a2.016,2.016,0,0,0-2.193,2.175c-.005,2.44,0,4.881,0,7.322v.444c.494,0,.947,0,1.4,0,.668.009,1.044.323.975.973a1.168,1.168,0,0,0,.886,1.444,3.884,3.884,0,0,1,1.051.649c.218.164.384.218.619.043A4.548,4.548,0,0,1,16,14.013a.827.827,0,0,1,1.191.307q1.115,1.889,2.189,3.8A.778.778,0,0,1,19.05,19.3a1.284,1.284,0,0,0-.873,1.67,3.61,3.61,0,0,1-.052,1.146.415.415,0,0,0,.253.5,5.632,5.632,0,0,1,.653.376.833.833,0,0,1,.344,1.215Q18.3,26.11,17.184,28a.764.764,0,0,1-1.146.3,1.331,1.331,0,0,0-1.957.093,3.484,3.484,0,0,1-.978.51.4.4,0,0,0-.295.467,6.5,6.5,0,0,1,0,.754.823.823,0,0,1-.885.9q-2.174.023-4.349,0c-.535-.006-.932-.344-.855-.864A1.354,1.354,0,0,0,5.643,28.5a7.966,7.966,0,0,1-.936-.584.613.613,0,0,0-.461-.024c-.258.1-.486.28-.735.407a.822.822,0,0,1-1.162-.291q-1.14-1.926-2.232-3.88a.746.746,0,0,1,.33-1.1A1.339,1.339,0,0,0,1.356,21.3a7.726,7.726,0,0,1,.031-1.147.612.612,0,0,0-.205-.412c-.218-.172-.485-.28-.72-.434a.831.831,0,0,1-.32-1.189q1.079-1.911,2.194-3.8A.816.816,0,0,1,3.487,14c.329.165.643.361.921.518.726-.4,1.424-.769,2.112-1.163a.445.445,0,0,0,.169-.31c.025-.264,0-.532.011-.8a.883.883,0,0,1,.973-.961c.455-.008.911,0,1.416,0v-.513q0-3.572,0-7.144A3.359,3.359,0,0,1,12.722.008Q21.6.007,30.473,0a1.413,1.413,0,0,1,1.1.446Q36.78,5.683,42.017,10.895a1.375,1.375,0,0,1,.436,1.058q-.013,14.909-.007,29.819a3.344,3.344,0,0,1-2.765,3.634.332.332,0,0,0-.076.045H11.911c-.208-.067-.42-.128-.625-.2a3.292,3.292,0,0,1-2.188-3.1c-.026-2.854-.012-5.709-.007-8.564,0-.483.27-.775.668-.775s.657.281.658.773q.006,4.1,0,8.209a2.053,2.053,0,0,0,2.309,2.328H38.823a2.036,2.036,0,0,0,2.291-2.294q0-14.51,0-29.02v-.538h-.505c-2.308,0-4.615-.011-6.923,0-1.344.009-2.931-.417-3.264-2.2-.049-.26-.073-.857-.073-.857ZM3.245,26.919c.293-.168.55-.313.805-.46a.952.952,0,0,1,1.074.073c.76.474,1.541.916,2.326,1.347a.92.92,0,0,1,.573.774c.022.333-.07.824.107.959.229.175.675.073,1.028.079.4.007.8,0,1.2,0h1.126c0-.344,0-.623,0-.9a.989.989,0,0,1,.623-.927c.78-.408,1.542-.856,2.288-1.325a.954.954,0,0,1,1.073-.083l.817.462L18,23.925c-.27-.158-.487-.282-.7-.41-.528-.315-.582-.552-.546-1.175a20.784,20.784,0,0,0-.02-2.469.982.982,0,0,1,.46-1.016c.26-.159.523-.313.806-.482l-1.72-2.984c-.247.142-.461.266-.676.387-.568.322-.784.262-1.331-.1a19.461,19.461,0,0,0-2.062-1.189c-.542-.272-.722-.464-.728-1.079,0-.258,0-.517,0-.763H8.027c0,.324,0,.618,0,.911a.941.941,0,0,1-.6.889c-.777.415-1.542.856-2.287,1.325a.971.971,0,0,1-1.114.066c-.249-.148-.5-.285-.781-.44l-1.72,2.987c.289.168.528.314.772.449a.943.943,0,0,1,.5.955q-.038,1.367,0,2.736a.955.955,0,0,1-.5.957c-.253.144-.5.293-.772.45l1.724,2.991M31.548,2.39a.828.828,0,0,0-.03.146c0,2.158-.013,4.315.007,6.473a1.936,1.936,0,0,0,1.969,1.923c2.084.01,4.168,0,6.252,0a2.732,2.732,0,0,0,.317-.036L31.548,2.39" transform="translate(0 0)" fill="#fff"/>
      <path id="Path_18" data-name="Path 18" d="M161.374,390.356h11.574a2.537,2.537,0,0,1,.443.012.66.66,0,0,1,0,1.307,2.124,2.124,0,0,1-.4.011H149.71a2.053,2.053,0,0,1-.4-.011.661.661,0,0,1,0-1.309,2.464,2.464,0,0,1,.443-.011h11.619" transform="translate(-135.519 -355.645)" fill="#fff"/>
      <path id="Path_19" data-name="Path 19" d="M161.334,435.3h11.574c.133,0,.267-.008.4,0a.654.654,0,0,1,.629.672.645.645,0,0,1-.608.647,2.111,2.111,0,0,1-.31.007H149.647c-.074,0-.148,0-.222,0a.665.665,0,1,1-.021-1.328c.118-.007.236,0,.355,0h11.575" transform="translate(-135.49 -396.59)" fill="#fff"/>
      <path id="Path_20" data-name="Path 20" d="M61.75,194.075a4.276,4.276,0,1,1,4.3,4.261,4.279,4.279,0,0,1-4.3-4.261m4.3,2.93a2.945,2.945,0,1,0-2.966-2.94A2.946,2.946,0,0,0,66.047,197" transform="translate(-56.259 -172.908)" fill="#fff"/>
    </g>
  </g>
  <rect id="Rectangle_18" data-name="Rectangle 18" width="51" height="51" fill="none"/>
</svg>